<?xml version="1.0" standalone="no"?>
<!DOCTYPE svg PUBLIC "-//W3C//DTD SVG 20010904//EN"
 "http://www.w3.org/TR/2001/REC-SVG-20010904/DTD/svg10.dtd">
<svg version="1.0" xmlns="http://www.w3.org/2000/svg"
 width="700.000000pt" height="700.000000pt" viewBox="0 0 700.000000 700.000000"
 preserveAspectRatio="xMidYMid meet">
<metadata>
Created by potrace 1.14, written by Peter Selinger 2001-2017
</metadata>
<g transform="translate(0.000000,700.000000) scale(0.100000,-0.100000)"
fill="#000000" stroke="none">
<path d="M4109 6902 l-25 -3 0 -774 1 -775 -40 -1 c-22 0 -809 -1 -1750 -2
l-1710 -2 -1 -192 0 -193 25 -1 c14 0 802 -1 1750 -2 l1725 -2 0 -680 1 -680
-267 1 -268 1 0 -243 0 -244 1457 2 1458 3 1 230 c0 127 -1 235 -3 241 -3 8
-171 11 -583 10 l-580 -1 0 1508 0 1507 -293 0 -292 0 1 -1497 c0 -824 -1
-1502 -3 -1508 -2 -5 -34 -10 -71 -9 l-67 0 -3 1652 c-2 1564 -3 1652 -20
1653 -51 3 -421 4 -443 1z"/>
<path d="M808 6222 c-21 -3 -28 -9 -29 -25 -3 -99 0 -549 4 -553 7 -7 2899 -6
2906 2 7 7 8 574 1 575 -20 2 -2861 3 -2882 1z"/>
<path d="M5673 6222 l-33 -3 0 -75 c0 -41 0 -535 0 -1099 0 -564 0 -1054 0
-1090 l0 -65 388 0 388 0 0 1165 0 1165 -25 1 c-100 2 -692 3 -718 1z"/>
<path d="M207 4758 c-9 -5 -12 -102 -12 -389 l0 -383 1830 -1 c1007 0 1838 1
1848 3 16 4 17 31 17 388 0 300 -3 384 -12 385 -56 5 -3662 2 -3671 -3z"/>
<path d="M538 3878 c-3 -7 -4 -116 -4 -243 l1 -230 577 -1 c318 0 580 -3 583
-6 3 -3 6 -681 6 -1507 l-1 -1501 289 0 c222 0 290 3 293 13 2 6 4 684 4 1505
-1 990 2 1492 9 1493 5 1 37 1 70 2 l60 1 5 -1654 5 -1653 231 0 c127 0 235 3
241 6 6 4 9 295 9 772 -1 422 3 769 7 772 5 3 791 5 1748 5 956 0 1740 3 1741
7 0 3 2 90 3 194 2 165 0 187 -14 188 -9 0 -797 0 -1751 1 l-1735 0 0 682 0
681 268 -1 267 -1 0 243 0 244 -1454 0 c-1154 0 -1455 -3 -1458 -12z"/>
<path d="M584 1951 c1 -638 4 -1163 8 -1167 8 -8 756 -9 764 -1 4 3 7 1662 4
2290 l0 37 -388 0 -389 0 1 -1159z"/>
<path d="M3120 3012 c-16 -6 -13 -769 3 -774 10 -3 3620 -2 3667 1 13 1 15 49
15 388 l0 387 -1838 0 c-1010 1 -1842 0 -1847 -2z"/>
<path d="M3365 1360 l-60 -5 0 -288 c0 -280 0 -287 20 -288 124 -4 2887 0
2891 4 7 7 9 566 2 573 -7 6 -2776 10 -2853 4z"/>
</g>
</svg>
